Coordinates
version=1
nRows=16
nColumns=40
inDegrees=yes

Units are S.I. units (second, meters, Newtons, ...)
Angles are in degrees.

endheader
time	pelvis_tilt	pelvis_list	pelvis_rotation	pelvis_tx	pelvis_ty	pelvis_tz	hip_flexion_r	hip_adduction_r	hip_rotation_r	knee_angle_r	knee_angle_r_beta	ankle_angle_r	subtalar_angle_r	mtp_angle_r	hip_flexion_l	hip_adduction_l	hip_rotation_l	knee_angle_l	knee_angle_l_beta	ankle_angle_l	subtalar_angle_l	mtp_angle_l	lumbar_extension	lumbar_bending	lumbar_rotation	arm_flex_r	arm_add_r	arm_rot_r	elbow_flex_r	pro_sup_r	wrist_flex_r	wrist_dev_r	arm_flex_l	arm_add_l	arm_rot_l	elbow_flex_l	pro_sup_l	wrist_flex_l	wrist_dev_l
     12.07000000	     -1.36235822	     -5.11663397	      4.27660056	      1.12501271	      0.93099739	      0.48500713	     11.98827235	      3.40574530	    -12.61071978	     18.85384775	     18.85384775	     10.24006975	     -4.10024859	     -3.26426903	     32.70944030	    -12.53462720	      1.99626741	     62.18193350	     62.18193350	      5.73449023	    -18.53514164	     12.32483177	    -12.70555747	      5.56125110	      1.45280259	     14.52089720	    -19.77320192	     -0.31431020	     61.57324296	     45.55034284	      0.00000000	      0.00000000	      6.03475191	    -10.61511499	    -10.27341111	     39.74020893	     45.35781043	      0.00000000	      0.00000000
     12.08285714	     -1.61796709	     -5.25083739	      4.75411420	      1.12354132	      0.93095678	      0.48549393	     11.92302916	      3.57157907	    -12.93961623	     18.74900729	     18.74900729	     10.45011706	     -4.27627890	     -3.32914875	     33.65736019	    -12.61556098	      1.90400110	     59.27818247	     59.27818247	      6.57668334	    -18.57794082	     12.42446146	    -12.55675379	      5.60601694	      1.86786228	     15.52505049	    -20.00793849	     -0.45053028	     62.08541824	     45.54277627	      0.00000000	      0.00000000	      5.55580977	    -10.56786718	    -10.26770643	     39.42530113	     45.35253997	      0.00000000	      0.00000000
     12.09571429	     -1.81298008	     -4.90146788	      5.18873082	      1.12215895	      0.93170198	      0.48563268	     11.31618242	      3.31451945	    -13.11746941	     17.79820949	     17.79820949	     10.40457147	     -4.14953763	     -3.24472877	     34.00805519	    -12.10291679	      1.45895104	     55.69948621	     55.69948621	      7.07760322	    -18.81174309	     12.75068141	    -12.65610447	      5.17545623	      0.84953319	     17.23572071	    -19.52480700	     -0.46356463	     64.57902034	     45.46474100	      0.00000000	      0.00000000	      4.58310443	    -10.83799200	    -10.24255781	     37.64700256	     45.34906300	      0.00000000	      0.00000000
     12.10857143	     -2.07824227	     -4.83002044	      5.61044064	      1.12068325	      0.93186484	      0.48585364	     11.06463181	      3.28105510	    -13.44639453	     17.32207903	     17.32207903	     10.45357380	     -4.10446002	     -3.32923889	     34.40321411	    -11.76465358	      1.29622883	     52.04346493	     52.04346493	      7.64192923	    -18.78654738	     12.96555773	    -12.63007187	      4.99935086	      0.64607778	     18.42998599	    -19.58946987	     -0.41684997	     66.42827282	     45.40540555	      0.00000000	      0.00000000	      4.03975260	    -10.86404139	    -10.26259472	     36.40605540	     45.35582910	      0.00000000	      0.00000000
     12.12142857	     -2.37913322	     -5.07883127	      6.04678859	      1.11919138	      0.93146980	      0.48604037	     11.09842666	      3.54183272	    -13.75969940	     17.25041585	     17.25041585	     10.64691392	     -4.21523408	     -3.45045502	     34.89968146	    -11.61699054	      1.51846567	     48.48315391	     48.48315391	      8.30332975	    -18.35740724	     13.16682846	    -12.40649000	      5.29036103	      1.02173695	     19.51156617	    -19.89441525	     -0.54575148	     67.18054830	     45.38984067	      0.00000000	      0.00000000	      3.56306617	    -10.78273490	    -10.26814991	     35.99003831	     45.35250219	      0.00000000	      0.00000000
     12.13428571	     -2.49927447	     -4.61741022	      6.41740449	      1.11788410	      0.93211963	      0.48579911	     10.48471388	      3.10752809	    -14.06017935	     16.48745460	     16.48745460	     10.71069916	     -3.88627822	     -3.61633184	     34.51029413	    -10.63804747	      1.50363075	     44.18102897	     44.18102897	      8.28879790	    -18.25637660	     13.08866550	    -12.67099423	      4.73507411	      0.21702259	     20.71657235	    -19.48484890	     -0.28646133	     70.42889375	     45.27703772	      0.00000000	      0.00000000	      2.97749851	    -10.94675532	    -10.32696102	     34.00877615	     45.36993030	      0.00000000	      0.00000000
     12.14714286	     -2.80003390	     -4.62198528	      6.79644276	      1.11647595	      0.93181938	      0.48547573	     10.34756677	      3.04663649	    -14.64747081	     16.14654560	     16.14654560	     10.65073937	     -3.40964135	     -4.43185018	     34.45041346	    -10.12999180	      1.74954422	     40.02198758	     40.02198758	      7.65444083	    -17.67041368	     10.47453749	    -12.64026826	      4.80585864	      1.01846512	     20.38517894	    -20.74959004	     -0.05162274	     75.10383779	     45.12004210	      0.00000000	      0.00000000	      3.91350087	    -10.48029403	    -10.78471920	     30.83852365	     45.51846990	      0.00000000	      0.00000000
     12.16000000	     -3.07016496	     -4.54321586	      7.06179085	      1.11518469	      0.93165264	      0.48527879	     10.23262916	      2.97549674	    -14.74700970	     15.91205444	     15.91205444	     10.78820224	     -3.52465746	     -4.50799384	     34.28093018	     -9.57938712	      2.00013353	     36.06839894	     36.06839894	      7.94131392	    -16.41926721	     10.45047140	    -12.55948728	      4.63771735	      1.07660233	     21.46319799	    -20.60250487	     -0.40035300	     76.15821713	     45.10397376	      0.00000000	      0.00000000	      3.41258140	    -10.47112730	    -10.85077521	     30.32625512	     45.53254724	      0.00000000	      0.00000000
     12.17285714	     -3.27768992	     -4.53930136	      7.33290245	      1.11402429	      0.93134508	      0.48490786	     10.01158248	      2.95739345	    -15.05804854	     15.62589283	     15.62589283	     10.88861602	     -3.29838773	     -4.97177731	     33.93103939	     -9.15779118	      2.24419465	     32.06943315	     32.06943315	      7.18784738	    -14.92865188	      7.64090873	    -12.58826655	      4.61412766	      1.43730063	     21.87294558	    -20.66210441	     -1.14696686	     78.89707515	     45.06111680	      0.00000000	      0.00000000	      3.38263103	    -10.24013216	    -11.48003236	     29.13125193	     45.71131299	      0.00000000	      0.00000000
     12.18571429	     -3.52241510	     -4.50421103	      7.56362401	      1.11290621	      0.93102918	      0.48446784	      9.87851304	      2.91301404	    -15.17695004	     15.43683921	     15.43683921	     11.07611729	     -3.33047090	     -5.04603415	     33.70020147	     -8.73068698	      2.46153474	     28.58818437	     28.58818437	      7.51584195	    -12.87218269	      7.80059684	    -12.49722903	      4.50623246	      1.37679864	     22.95246146	    -20.34131232	     -1.23157883	     79.92537261	     45.03783339	      0.00000000	      0.00000000	      2.80057992	    -10.22939762	    -11.53449616	     28.76874720	     45.72079530	      0.00000000	      0.00000000
     12.19857143	     -3.76457018	     -4.49125570	      7.76443590	      1.11191426	      0.93066146	      0.48391178	      9.73004486	      2.88370766	    -15.31430575	     15.24125698	     15.24125698	     11.27490841	     -3.28910085	     -5.13608645	     33.48532452	     -8.38633122	      2.53893190	     25.48908547	     25.48908547	      7.73188395	    -10.75051557	      7.97486334	    -12.37994508	      4.42935967	      1.36053973	     23.94317278	    -20.02703836	     -1.24063203	     81.00692023	     45.00945663	      0.00000000	      0.00000000	      2.23562689	    -10.17567638	    -11.59635419	     28.49185876	     45.72903570	      0.00000000	      0.00000000
     12.21142857	     -3.87165415	     -4.52550918	      7.94408195	      1.11116469	      0.93041503	      0.48329646	      9.41399760	      2.92105558	    -15.48914591	     15.02179202	     15.02179202	     11.49045865	     -3.13110195	     -5.24742264	     33.20223827	     -8.19075952	      2.36595455	     22.93439003	     22.93439003	      7.92506326	     -8.60747179	      8.04582538	    -12.39548818	      4.42661667	      1.27182983	     24.87681213	    -19.59556024	     -1.15615274	     82.34600111	     44.97099863	      0.00000000	      0.00000000	      1.63113980	    -10.16414324	    -11.73440193	     28.28987923	     45.75195478	      0.00000000	      0.00000000
     12.22428571	     -4.02614160	     -4.55560704	      8.08657871	      1.11051500	      0.93008967	      0.48256244	      9.13675318	      2.94801802	    -15.61274153	     14.79735927	     14.79735927	     11.70513633	     -3.00868068	     -5.33240288	     33.01507536	     -7.99628141	      2.09438793	     20.91092426	     20.91092426	      7.93325099	     -6.97132555	      8.20032048	    -12.31238588	      4.40612029	      1.31612991	     25.66238014	    -19.22724817	     -1.06079360	     83.42159623	     44.93987375	      0.00000000	      0.00000000	      1.09764072	    -10.09295999	    -11.87043102	     28.19511488	     45.77314420	      0.00000000	      0.00000000
     12.23714286	     -4.10917528	     -4.61159993	      8.19701135	      1.11009367	      0.92983423	      0.48175376	      8.74639673	      3.01535898	    -15.72906501	     14.52680018	     14.52680018	     11.91340787	     -2.79455482	     -5.40014647	     32.83479134	     -7.88628466	      1.64758921	     19.53522787	     19.53522787	      7.87470797	     -5.71083032	      8.22614196	    -12.27344266	      4.42592972	      1.34586931	     26.40252268	    -18.79426198	     -0.90851087	     84.55778452	     44.90657658	      0.00000000	      0.00000000	      0.54144089	    -10.01625930	    -12.08717575	     28.22360054	     45.80903141	      0.00000000	      0.00000000
     12.25000000	     -4.21377952	     -4.66700261	      8.27523826	      1.10981586	      0.92954877	      0.48084177	      8.37908293	      3.07973403	    -15.79662242	     14.27239420	     14.27239420	     12.13194394	     -2.63921615	     -5.44730786	     32.69857002	     -7.77705970	      1.15720902	     18.69855353	     18.69855353	      7.67445083	     -5.12109689	      8.27625391	    -12.17091976	      4.42812458	      1.46675812	     27.01212587	    -18.37710385	     -0.77607738	     85.35318027	     44.88281948	      0.00000000	      0.00000000	      0.09546591	     -9.92907625	    -12.24868781	     28.21947269	     45.83404507	      0.00000000	      0.00000000
     12.26285714	     -4.22503006	     -4.72852067	      8.31506288	      1.10984793	      0.92934705	      0.47986334	      7.83872156	      3.17317851	    -15.86908561	     13.92199148	     13.92199148	     12.35219848	     -2.33953992	     -5.46377817	     32.48454121	     -7.73510771	      0.57567008	     18.42636461	     18.42636461	      7.40709404	     -4.94299979	      8.08099984	    -12.11953035	      4.44732507	      1.51124787	     27.56071268	    -17.81666321	     -0.54694630	     86.25592230	     44.85402255	      0.00000000	      0.00000000	     -0.42038303	     -9.86598298	    -12.50846628	     28.30843695	     45.87565501	      0.00000000	      0.00000000
